<svg width="215" height="214" viewBox="0 0 215 214" fill="none" xmlns="http://www.w3.org/2000/svg">
<path d="M156.289 187.678C150.986 178.904 143.044 172.163 133.997 167.467C126.031 163.33 117.353 160.845 108.65 158.776C104.952 157.896 101.219 157.088 97.51 156.268C91.2446 154.877 84.6819 153.545 79.2606 149.919C73.8511 146.305 69.9159 140.824 66.373 135.462C64.4946 132.621 62.7588 129.244 62.9252 125.749C63.0679 122.919 64.3043 120.28 66.5276 118.508C70.4866 115.346 76.3953 115.001 81.032 116.749C84.0874 117.902 86.7981 119.697 89.485 121.504C91.9579 123.157 94.8707 125.463 97.8786 125.987C99.2339 126.224 100.137 125.214 101.065 124.37C102.396 123.157 103.68 121.909 104.941 120.637C107.164 118.378 109.684 115.94 111.135 113.075C114.202 107 107.568 101.995 103.193 99.1295C98.259 95.9076 91.411 91.3304 86.0491 96.2881C83.7664 98.4043 82.0188 101.127 80.6872 103.921C79.5221 106.37 78.785 109.009 77.7388 111.518C75.682 116.404 71.6517 121.29 65.6953 119.733C62.8539 118.996 60.4048 116.773 59.0851 114.181C57.4801 111.03 57.4326 107.511 57.9913 104.087C58.5263 100.853 59.5607 97.6672 60.6069 94.5761C61.6056 91.6514 62.7707 88.7505 64.2449 86.028C67.1577 80.6661 71.3544 76.2672 77.0492 73.9132C89.4493 68.7772 102.575 72.9264 113.667 79.2275C116.615 80.9039 119.504 82.6872 122.382 84.4824L119.683 89.0953C110.623 82.4019 101.647 75.6014 92.7426 68.694C88.6528 65.5196 84.5036 62.3334 80.1998 59.4444C76.5023 56.9478 72.4601 54.142 71.9846 49.3389C71.5566 44.9281 74.291 41.409 78.2381 39.804C81.8523 38.3416 85.9183 38.6983 89.5207 40.0061C93.4083 41.4209 96.8918 43.6441 100.244 46.0219C103.609 48.4234 106.974 50.8488 110.314 53.286C119.35 59.8724 128.041 66.982 135.186 75.649L131.072 78.8233C126.745 70.7151 120.277 64.1762 113.691 57.8751C110.386 54.7245 107.045 51.6215 103.847 48.364C100.661 45.1183 97.0582 41.6349 95.0609 37.4856C93.1349 33.491 92.909 28.2955 96.2973 24.9666C99.6857 21.6377 105.345 22.6721 109.399 24.4792C113.833 26.4527 117.864 29.6152 121.621 32.635C125.354 35.6429 128.837 38.948 132.095 42.4671C139.442 50.397 145.636 59.3018 151.628 68.2541C149.988 68.9436 148.359 69.6332 146.718 70.3227C145.018 61.6676 140.417 54.2965 135.424 47.1632C133.046 43.7749 130.597 40.4341 128.457 36.8912C126.222 33.1937 123.927 28.5571 125.164 24.1225C126.4 19.6761 130.977 17.2745 135.4 17.7382C140.334 18.2494 144.269 21.614 147.812 24.8121C154.624 30.9467 160.319 38.3179 164.956 46.2121C169.711 54.3203 173.456 63.1062 176.214 72.0942C179.306 82.176 181.101 92.5906 182.896 102.97C183.811 108.213 184.727 113.456 185.821 118.675C186.807 123.371 187.889 127.984 190.695 131.979C195.439 138.72 202.881 143.606 204.843 152.083C207.054 161.641 201.122 170.439 194.618 176.835C187.77 183.576 179.615 189.105 170.781 192.897C168.582 193.836 166.335 194.621 164.112 195.477C161.746 196.393 160.723 192.588 163.065 191.685C167.191 190.091 171.197 187.761 174.942 185.431C178.687 183.101 182.242 180.414 185.666 177.572C189.09 174.731 192.3 171.771 194.963 168.323C197.365 165.208 199.552 161.427 199.85 157.433C200.456 149.527 193.893 144.022 189.161 138.636C186.177 135.248 183.859 131.634 182.409 127.33C180.887 122.8 180.138 117.95 179.27 113.254C175.798 94.4334 173.266 75.4469 165.086 57.9345C161.496 50.2662 157.097 42.907 151.604 36.4275C148.846 33.1545 145.824 30.1127 142.569 27.3325C139.93 25.0855 136.22 22.0182 132.499 23.3854C128.778 24.7526 130.49 29.2585 131.786 31.779C133.545 35.2267 135.852 38.4011 138.075 41.5516C142.819 48.2688 147.574 54.998 150.309 62.8327C150.998 64.8182 151.533 66.8512 151.937 68.908C152.508 71.8921 148.751 73.5803 147.027 70.9766C137.362 56.4484 127.006 42.2531 112.454 32.2426C110.647 31.0062 108.769 29.7816 106.712 28.9732C105.095 28.3312 102.86 27.6178 101.136 28.141C97.8786 29.1158 99.1031 33.7882 100.292 35.845C102.337 39.376 105.476 42.3839 108.317 45.261C111.301 48.2808 114.404 51.1816 117.46 54.1182C124.343 60.7284 131.108 67.6715 135.614 76.1721C136.934 78.6687 133.474 81.748 131.5 79.3464C125.794 72.3914 118.981 66.4232 111.812 61.0257C108.436 58.4695 104.929 56.0918 101.517 53.5832C98.6989 51.5145 95.9288 49.3983 92.9447 47.5912C90.1508 45.903 86.9764 44.2504 83.6476 44.1553C81.1985 44.084 77.6556 44.9875 77.2989 47.8646C76.8709 51.3719 81.1866 53.4524 83.6119 55.0336C87.7136 57.6967 91.411 60.9781 95.3343 63.8909C104.608 70.7864 113.81 77.789 122.928 84.8866C125.318 86.7413 122.215 90.736 119.695 89.0834C109.458 82.3424 97.8429 74.8405 84.9791 76.6714C79.3557 77.468 74.3504 80.5948 71.0572 85.2314C67.7759 89.8443 65.945 95.2656 64.4232 100.675C63.5553 103.754 62.4972 107.297 63.484 110.472C64.0784 112.374 65.7191 114.442 67.871 114.478C71.8419 114.526 73.3993 108.011 74.5407 105.026C76.6688 99.4743 80.4851 93.0067 86.1561 90.4744C92.5048 87.633 99.0674 91.2591 104.572 94.3502C110.077 97.4413 115.343 101.507 116.425 107.88C117.59 114.752 112.252 119.781 107.984 124.417C105.927 126.652 103.633 129.613 100.732 130.766C97.5219 132.038 94.0147 130.445 91.197 128.899C86.4771 126.319 81.9474 121.683 76.3478 121.243C72.4601 120.934 67.7046 122.551 68.62 127.211C69.2263 130.314 71.4971 133.037 73.2923 135.545C75.0876 138.054 76.9779 140.515 79.2368 142.655C83.707 146.887 89.5088 148.587 95.37 149.931C99.5073 150.87 103.668 151.738 107.806 152.665C125.817 156.731 144.21 163.698 155.635 178.999C157.204 181.103 158.595 183.315 159.82 185.633C161.044 187.951 157.668 189.937 156.312 187.69L156.289 187.678Z" fill="black"/>
<path d="M44.2292 138.861C39.866 146.684 35.8595 154.697 32.2096 162.889C40.736 160.026 48.9434 156.289 56.7007 151.737C57.4735 161.664 59.1855 171.52 61.7891 181.138C65.7006 173.898 69.6239 166.669 73.5354 159.429L88.23 187.106C91.0239 179.533 93.8178 171.948 96.6117 164.375C101.861 171.813 108.002 178.581 114.897 184.527C114.992 178.653 115.574 172.804 116.633 167.026C116.835 165.944 117.227 164.672 118.285 164.399C118.773 164.28 119.272 164.399 119.759 164.529L131.292 167.597C130.21 164.125 126.203 162.615 122.684 161.688C112.674 159.061 102.413 157.313 92.6646 153.841C82.9157 150.382 73.4878 144.972 67.4482 136.567C63.941 131.68 61.8724 124.511 65.7957 119.946C61.5038 118.436 58.9239 113.811 58.5316 109.282C58.1392 104.752 59.5184 100.27 61.0282 95.9781C62.5381 91.6862 64.2264 87.3825 66.9608 83.7445C74.1774 74.162 87.802 71.0233 99.4531 73.8172C97.0991 69.9058 93.2947 66.886 88.9434 65.495C87.7069 65.1027 86.4229 64.8292 85.2578 64.2705C83.7122 63.5333 82.4401 62.3326 81.2037 61.1318C75.283 55.4014 69.5882 49.4331 64.1312 43.2628C63.4536 50.2178 64.2382 57.3155 66.402 63.9613C57.6518 60.8465 48.8897 57.7197 40.1395 54.6048C40.1989 58.2785 41.6731 61.7738 43.1236 65.1502C45.7748 71.3206 48.426 77.5028 51.0772 83.6731C41.4116 83.4591 31.7935 81.224 23.0195 77.158C24.351 86.8118 33.0418 93.7192 36.5847 102.802C28.4843 103.587 20.4115 104.634 12.3789 105.941C19.5836 111.588 26.8001 117.224 34.0048 122.871C27.6656 130.386 20.8216 137.46 13.5202 144.045C23.5664 143.213 33.5411 141.548 43.3138 139.075" fill="black"/>
<path d="M45.8074 139.788C41.6344 147.504 37.7468 155.386 34.3822 163.483L31.6121 160.713C35.7257 159.155 39.8273 157.681 43.8339 155.838C47.8286 153.995 51.7281 151.95 55.5207 149.715C57.1494 148.764 58.8971 150.013 59.0398 151.736C59.8382 161.46 61.5215 171.09 64.0688 180.508L59.7412 179.937L71.4756 158.216C72.3078 156.67 74.7688 156.658 75.601 158.216C80.5111 167.442 85.4093 176.656 90.3194 185.881L85.8968 186.464C88.6907 178.879 91.4727 171.306 94.2665 163.72C95.0155 161.676 97.4766 161.378 98.7249 163.138C103.885 170.39 109.924 176.953 116.665 182.766L112.433 184.514C112.492 181.209 112.635 177.892 112.992 174.599C113.324 171.52 113.479 168 114.549 165.064C115.036 163.744 115.916 162.543 117.295 162.068C118.912 161.509 120.517 162.092 122.087 162.52L131.966 165.159L128.851 168.274C128.114 166.158 125.558 165.207 123.596 164.588C120.386 163.578 117.058 162.888 113.776 162.127C107 160.558 100.187 159.06 93.577 156.849C82.3182 153.08 70.4056 146.779 64.152 136.221C60.8469 130.634 59.6104 123.477 63.9499 118.115L65.0912 122.454C59.8482 120.492 56.6977 115.57 55.9962 110.137C55.1878 103.896 57.4942 97.5588 59.7412 91.8284C61.8337 86.4784 64.6157 81.3899 69.1334 77.6925C73.0568 74.4825 77.7291 72.283 82.6749 71.1892C88.4291 69.9171 94.3973 70.0004 100.116 71.3438L97.2031 75.1364C95.4317 72.283 92.7923 69.9885 89.7012 68.645C88.1675 67.9792 86.515 67.6939 84.9694 67.0757C82.9959 66.291 81.379 65.0308 79.8453 63.5804C73.675 57.7548 67.8376 51.525 62.2141 45.1764L66.8151 43.2741C66.1969 50.0627 66.9221 56.768 68.9908 63.2475C69.5852 65.1259 67.5998 67.2421 65.6738 66.5645C56.9235 63.4496 48.1614 60.3347 39.3993 57.2198L42.8352 54.6042C43.0017 59.3479 45.4864 63.8538 47.3292 68.1338C49.3503 72.8537 51.3833 77.5855 53.4044 82.3054C54.1653 84.0768 53.3212 86.4308 51.0742 86.3595C40.8617 86.0741 30.9226 83.732 21.6492 79.4758L25.632 76.4204C26.3572 81.2116 28.8658 85.2538 31.5764 89.1771C34.4298 93.3264 37.3307 97.3567 39.2091 102.065C39.9224 103.86 38.151 105.358 36.5817 105.501C28.7231 106.261 20.8883 107.272 13.0892 108.532L14.29 104.003C21.4947 109.65 28.6756 115.321 35.8683 120.98C37.0453 121.907 36.7006 123.726 35.8683 124.713C29.5078 132.203 22.6717 139.289 15.3838 145.887L13.5172 141.393C23.3374 140.561 33.0507 138.92 42.6093 136.519C45.9025 135.686 47.3054 140.775 44.0122 141.607C34.0018 144.128 23.8011 145.804 13.5172 146.66C11.2583 146.85 10.0219 143.64 11.6507 142.166C18.9416 135.575 25.7812 128.501 32.1233 120.992V124.725C24.8949 119.101 17.6546 113.49 10.438 107.855C8.89244 106.654 9.72466 103.634 11.6388 103.325C19.9134 101.981 28.2238 100.888 36.5698 100.079C35.69 101.221 34.8221 102.374 33.9423 103.515C30.3043 94.4558 21.887 87.8931 20.389 77.8708C20.0323 75.4574 22.1129 73.781 24.3718 74.8154C32.7416 78.6555 41.8722 80.736 51.0623 80.9738C50.2896 82.3291 49.5049 83.6845 48.7321 85.0279C46.5446 79.9514 44.357 74.8629 42.1576 69.7864C40.0532 64.9 37.5803 60.0256 37.402 54.6042C37.3426 52.9398 39.1972 51.4061 40.8379 51.9887C49.5881 55.1155 58.3383 58.2541 67.1004 61.369L63.7834 64.686C61.5664 57.7797 60.7579 50.4986 61.4057 43.2741C61.5959 41.146 64.3184 39.4697 66.0067 41.3719C71.7371 47.8395 77.6459 54.2832 84.0064 60.1326C86.7647 62.6649 90.5929 62.9265 93.791 64.7693C97.0367 66.6477 99.6879 69.3465 101.638 72.5208C102.862 74.5181 100.841 76.8008 98.7249 76.3134C90.6285 74.4349 81.6643 75.4811 74.6261 80.0821C70.8692 82.5431 68.1942 86.0028 66.2207 90.0094C65.0318 92.4109 64.1282 94.9314 63.2484 97.4518C62.3687 99.996 61.5127 102.612 61.1798 105.298C60.621 109.697 61.7504 115.63 66.4347 117.437C68.3369 118.174 68.8838 120.183 67.576 121.776C64.4373 125.569 66.9697 131.442 69.3593 134.914C72.5099 139.503 76.992 143.153 81.7238 145.982C92.7329 152.581 105.513 154.923 117.83 157.859C123.668 159.25 131.407 160.415 133.678 166.907C134.332 168.773 132.323 170.485 130.563 170.022C127.995 169.344 125.439 168.654 122.871 167.977C122.134 167.786 121.409 167.584 120.672 167.394C120.363 167.311 119.257 167.216 119.019 166.954C118.484 166.871 118.591 166.728 119.352 166.502C119.244 166.618 119.184 166.772 119.186 166.93C119.15 167.442 118.96 168 118.865 168.5C117.937 173.767 117.414 179.128 117.319 184.49C117.272 186.737 114.692 187.629 113.087 186.238C106.048 180.127 99.8305 173.172 94.4449 165.563L98.9032 164.981C96.0974 172.554 93.2917 180.139 90.4978 187.712C89.8201 189.531 87.1213 190.268 86.0751 188.295C81.1888 179.057 76.3024 169.831 71.4042 160.594H75.5297C71.6063 167.822 67.683 175.062 63.7597 182.291C62.7848 184.086 59.9552 183.658 59.4321 181.72C56.7924 171.894 55.0691 161.845 54.2842 151.701C55.4612 152.378 56.6263 153.044 57.8033 153.722C49.9448 158.287 41.4561 162.436 32.7297 165.028C30.7086 165.635 29.377 163.399 30.1854 161.711C34.0493 153.639 38.1153 145.673 42.5737 137.898C43.7507 135.853 46.8537 137.672 45.7361 139.741L45.8074 139.788Z" fill="black"/>
<path d="M73.332 116.047C81.3451 115.75 88.0029 121.777 95.267 125.189C97.0504 126.034 99.0715 126.735 100.974 126.2C102.555 125.76 103.779 124.559 104.909 123.37C107.192 120.957 109.332 118.401 111.317 115.738C111.959 114.87 112.601 113.954 112.886 112.908C113.445 110.828 112.47 108.64 111.317 106.821C107.275 100.461 100.558 95.8477 93.1627 94.3616C91.6766 94.0644 90.1429 93.886 88.6568 94.1952C86.5049 94.6469 84.6859 96.0855 83.1641 97.6667C78.6345 102.398 76.0427 108.925 76.0784 115.476" fill="black"/>
<path d="M73.3301 114.132C79.9166 113.823 85.6114 117.271 91.1397 120.398C92.4594 121.147 93.8028 121.884 95.17 122.55C96.5372 123.216 98.2968 124.202 99.8542 123.953C101.043 123.762 101.994 122.692 102.779 121.872C104.154 120.423 105.471 118.92 106.726 117.366C107.76 116.106 108.83 114.822 109.722 113.455C110.614 112.088 110.507 110.911 109.793 109.46C108.497 106.797 106.357 104.479 104.134 102.565C101.994 100.722 99.45 99.1762 96.7988 98.1776C94.1476 97.1789 90.5334 95.883 87.8227 97.3097C84.8029 98.9147 82.5678 102.279 81.0936 105.263C79.5124 108.438 78.7396 111.945 78.7277 115.476C78.7158 119.007 73.4609 118.864 73.4728 115.476C73.4728 107.736 76.6947 99.5686 82.6867 94.4801C84.1134 93.2675 85.6946 92.245 87.5136 91.7338C89.7487 91.1156 92.1027 91.389 94.3259 91.8765C97.9164 92.6611 101.412 94.171 104.467 96.204C107.523 98.237 110.34 100.924 112.575 103.979C114.929 107.189 116.736 111.22 114.834 115.084C113.919 116.95 112.433 118.591 111.137 120.196C109.746 121.92 108.283 123.584 106.738 125.177C103.754 128.268 100.223 129.624 96.0141 128.042C88.2982 125.13 82.0209 117.984 73.3301 117.937C70.8572 117.937 70.881 114.228 73.3301 114.109V114.132ZM136.829 163.471C146.268 158.692 155.221 152.724 163.258 145.84C165.314 144.069 167.383 142.25 169.024 140.086C170.664 137.922 171.889 135.699 173.114 133.392C174.338 131.086 175.634 128.589 176.787 126.14C177.976 123.608 178.785 120.909 180.021 118.412C180.497 117.438 181.816 117.128 182.744 117.521C183.825 117.973 184.17 118.995 184.004 120.101C183.588 122.93 182.185 125.724 181.02 128.316C179.831 130.955 178.499 133.523 177.132 136.067C175.884 138.386 174.576 140.68 172.983 142.773C171.188 145.139 169.083 147.148 166.848 149.086C158.383 156.374 149.062 162.389 138.969 167.169C136.52 168.322 134.356 164.743 136.817 163.495L136.829 163.471Z" fill="black"/>
<path d="M147.531 173.97C147.174 170.273 146.663 166.611 145.997 162.961C145.736 161.51 147.317 159.751 148.791 160.809C153.535 164.197 158.98 166.361 164.746 167.158L162.178 169.107C162.131 163.508 161.061 157.896 159.349 152.57C158.778 150.799 160.906 149.265 162.452 150.18C167.457 153.141 173.14 154.888 178.882 155.721L176.207 157.765C175.803 151.69 174.138 145.615 171.487 140.146C170.631 138.387 172.034 136.568 173.948 136.936C179.774 138.077 185.587 139.314 191.437 140.372L188.607 142.524C188.69 141.097 187.668 139.1 186.978 137.602C186.158 135.807 185.159 133.988 184.743 132.038C184.137 129.149 188.488 127.901 189.202 130.813C190.153 134.689 193.47 138.375 193.077 142.536C192.935 144.022 191.77 145.021 190.248 144.688C184.446 143.416 178.609 142.334 172.783 141.157L175.244 137.947C178.288 144.224 179.976 150.822 180.439 157.777C180.535 159.299 179.013 160.001 177.764 159.822C171.57 158.919 165.84 156.755 160.323 153.842L163.426 151.452C165.364 157.195 166.185 163.068 166.22 169.107C166.22 170.558 164.924 171.247 163.652 171.057C157.541 170.177 151.799 167.788 146.853 164.09L149.647 161.938C150.289 165.921 150.765 169.928 151.062 173.958C151.228 176.253 147.733 176.205 147.519 173.958L147.531 173.97ZM159.527 177.097L159.42 177.216C159.265 177.387 159.069 177.514 158.849 177.584C158.635 177.691 158.409 177.751 158.172 177.739L157.708 177.679C157.411 177.596 157.149 177.442 156.923 177.228L156.816 177.109L156.519 176.716L156.329 176.265C156.246 176.015 156.234 175.753 156.293 175.504C156.293 175.325 156.341 175.171 156.424 175.016C156.471 174.85 156.555 174.719 156.674 174.588C156.757 174.446 156.876 174.327 157.018 174.243C157.137 174.125 157.28 174.041 157.446 173.994C157.672 173.875 157.922 173.815 158.183 173.827L158.695 173.899L159.146 174.089L159.539 174.386L159.836 174.778L160.026 175.23C160.109 175.48 160.121 175.741 160.062 175.991C160.062 176.169 160.014 176.324 159.931 176.479C159.86 176.716 159.717 176.918 159.539 177.097H159.527Z" fill="black"/>
<path d="M174.569 164.815C177.232 164.815 177.244 168.952 174.569 168.952C171.894 168.952 171.894 164.815 174.569 164.815ZM190.536 154.59L190.512 154.781L190.31 155.268C190.179 155.506 190.001 155.696 189.787 155.839C189.663 155.966 189.507 156.057 189.335 156.1C189.085 156.231 188.824 156.29 188.538 156.279L187.991 156.207L187.504 156.005C187.266 155.874 187.076 155.696 186.933 155.482C186.755 155.28 186.624 155.054 186.565 154.781L186.541 154.59C186.446 154.222 186.446 153.853 186.541 153.485C186.636 153.128 186.814 152.831 187.076 152.569L187.492 152.248C187.813 152.058 188.17 151.963 188.538 151.963C188.824 151.963 189.097 152.01 189.335 152.141C189.596 152.224 189.81 152.367 190.001 152.569C190.262 152.831 190.44 153.14 190.536 153.485C190.631 153.853 190.631 154.222 190.536 154.59Z" fill="black"/>
<path d="M125.583 82.9579C124.419 83.5353 125.001 83.2239 123.827 83.7953L122.108 84.6502C121.393 85.0114 120.675 85.3297 120.025 85.8132L119.689 86.2353C119.548 86.4699 119.454 86.7186 119.438 87C119.379 87.4221 119.424 87.8788 119.657 88.2539C120.112 88.9979 121.044 89.5012 121.922 89.2379C122.658 89.0276 123.341 88.6053 124.014 88.2462L125.779 87.3362C125.187 87.6415 126.353 87.0375 127.503 86.4377C128.43 85.9541 128.846 84.6368 128.297 83.7256C127.72 82.7696 126.588 82.4376 125.585 82.9314L125.583 82.9579Z" fill="black"/>
<path d="M151.263 66.8541C152.374 66.3419 151.849 66.948 152.919 66.342L152.93 66.3481C153.759 65.8891 154.767 66.2435 155.23 67.0201C155.438 67.3667 155.483 67.8927 155.373 68.2842C155.247 68.7491 154.945 69.0673 154.558 69.3203C153.524 70.0037 154.135 69.5322 153.097 70.1993C152.587 70.5175 152.068 70.8297 151.538 71.1357C150.767 71.5886 150.007 72.117 149.079 72.1153C148.359 72.1135 147.692 71.6998 147.346 71.0761C147.042 70.5195 146.966 69.6286 147.386 69.0901C147.669 68.7332 147.897 68.3988 148.313 68.1906C148.452 68.1213 148.594 68.0682 148.743 68.0049C149.041 67.8784 149.322 67.756 149.61 67.6233C150.162 67.3723 150.71 67.105 151.263 66.8541Z" fill="black"/>
<path d="M136.937 74.4679C136.937 74.4679 137.52 74.4299 138.915 73.7836C139.633 73.4464 140.546 73.955 140.843 74.5913C141.141 75.2277 141.003 76.2571 140.303 76.61C138.936 77.2965 139.841 76.9259 138.512 77.6772C137.284 78.3715 136.007 78.9972 134.748 79.6362C134.334 80.0806 133.689 80.3191 133.1 80.2843C132.364 80.2435 131.718 79.8088 131.394 79.1491C131.038 78.4157 131.136 77.5239 131.673 76.9044C131.989 76.5403 132.531 76.2519 133.059 76.1981C134.348 75.6107 136.937 74.4679 136.937 74.4679Z" fill="black"/>
</svg>
