<svg width="16" height="17" viewBox="0 0 16 17" fill="none" xmlns="http://www.w3.org/2000/svg">
<path d="M8.0026 15.168C4.3207 15.168 1.33594 12.1832 1.33594 8.50138C1.33594 4.81948 4.3207 1.83472 8.0026 1.83472C11.6845 1.83472 14.6693 4.81948 14.6693 8.50138C14.6693 12.1832 11.6845 15.168 8.0026 15.168ZM8.0026 13.8347C10.9481 13.8347 13.3359 11.4469 13.3359 8.50138C13.3359 5.55586 10.9481 3.16805 8.0026 3.16805C5.05708 3.16805 2.66927 5.55586 2.66927 8.50138C2.66927 11.4469 5.05708 13.8347 8.0026 13.8347ZM7.33594 10.5014H8.66927V11.8347H7.33594V10.5014ZM7.33594 5.16805H8.66927V9.16805H7.33594V5.16805Z" fill="#6F6F6F"/>
</svg>
