<svg width="243" height="71" viewBox="0 0 243 71" fill="none" xmlns="http://www.w3.org/2000/svg">
<path d="M22.3621 35.305V68.5172H0V1.90161H22.3621V28.4529L38.5415 1.90161H62.7132L43.3965 31.6896L59.6715 68.5172H35.3086L22.3658 35.305H22.3621Z" fill="white"/>
<path d="M56.5273 35.2093C56.5273 15.2232 71.0885 0 93.263 0C115.438 0 129.999 15.2268 129.999 35.2093C129.999 55.1917 115.438 70.4222 93.263 70.4222C71.0885 70.4222 56.5273 55.1954 56.5273 35.2093ZM106.963 35.2093C106.963 25.8819 101.443 19.4124 93.2593 19.4124C85.0758 19.4124 79.5552 25.8819 79.5552 35.2093C79.5552 44.5366 85.0758 51.0062 93.2593 51.0062C101.443 51.0062 106.963 44.5366 106.963 35.2093Z" fill="white"/>
<path d="M129.516 1.90161H152.165L159.112 48.6266L170.058 1.90161H193.66L172.629 68.5172H142.08L129.519 1.90161H129.516Z" fill="white"/>
<path d="M215.166 1.90161H242.766V68.5172H220.878V51.8633H206.699L202.131 68.5172H179.387L193.852 20.5526C198.229 5.99152 202.988 1.90161 215.17 1.90161H215.166ZM220.874 35.6838V18.173H219.826C216.494 18.173 215.828 18.9343 214.305 24.455L211.164 35.6838H220.871H220.874Z" fill="white"/>
</svg>
