<svg width="32" height="32" viewBox="0 0 32 32" fill="none" xmlns="http://www.w3.org/2000/svg">
<path d="M20.8801 15.5432C20.281 14.3166 19.5699 12.9441 19.8206 11.5326C19.8721 11.2446 19.9521 10.8784 20.1423 10.6472C20.3308 10.4161 20.5281 10.7344 20.585 10.9121C20.8054 11.6019 20.777 12.4001 20.7112 13.1112C20.6294 13.9895 20.425 14.8499 20.2277 15.7086C20.1334 16.1192 20.7503 16.2935 20.8623 15.8828C21.2623 14.4197 21.6872 12.8428 22.6917 11.6624C22.8694 11.4526 23.1859 11.1112 23.497 11.1859C23.7974 11.257 23.8205 11.6535 23.753 11.8935C23.6481 12.2668 23.385 12.601 23.1628 12.9121C22.937 13.2286 22.6952 13.5344 22.441 13.8277C21.8525 14.5032 21.193 15.1095 20.4837 15.6535C20.3308 15.7708 20.2614 15.945 20.3592 16.1281C20.5121 16.4108 20.1317 16.7041 19.9272 16.8286C19.5788 17.0401 19.1912 17.2072 18.9512 17.5539C18.841 17.7139 18.7717 17.9059 18.7823 18.1032C18.7948 18.3326 18.9263 18.4712 19.0508 18.649C19.2197 18.8908 19.1717 19.2481 18.9263 19.4206C18.6526 19.6144 18.9086 20.0677 19.193 19.8757C19.5254 19.6517 19.7281 19.2695 19.7103 18.8659C19.7014 18.6704 19.6446 18.4819 19.5379 18.3184C19.4863 18.2401 19.3974 18.1601 19.4152 18.0606C19.433 17.961 19.5503 17.8686 19.6232 17.8081C19.9734 17.5237 20.4285 17.3939 20.7325 17.0472C21.0365 16.7006 21.1859 16.2188 20.9601 15.7779C20.9192 15.9361 20.8765 16.0944 20.8357 16.2526C21.6054 15.689 22.3059 15.033 22.9246 14.3095C23.2303 13.9521 23.5201 13.577 23.7868 13.1877C24.0428 12.8161 24.3272 12.4144 24.4125 11.961C24.489 11.5539 24.4054 11.1077 24.105 10.8072C23.7761 10.4784 23.2872 10.4695 22.889 10.6668C22.4961 10.8624 22.2117 11.2126 21.9557 11.5592C21.6801 11.9326 21.449 12.3379 21.2499 12.7575C20.8037 13.7015 20.5139 14.7077 20.2294 15.7086C20.441 15.7672 20.6526 15.8259 20.8641 15.8828C21.0846 14.969 21.2925 14.0481 21.3814 13.1112C21.4241 12.649 21.4366 12.1832 21.3974 11.721C21.3619 11.3015 21.3192 10.8428 21.1254 10.4624C20.9512 10.1157 20.5868 9.85791 20.1903 9.8988C19.7939 9.93969 19.5485 10.2792 19.3992 10.6277C19.0597 11.4135 19.0472 12.2899 19.2285 13.1166C19.4419 14.089 19.9254 14.9601 20.4161 15.8152C20.5903 16.1192 21.0312 15.8526 20.8819 15.5432H20.8801Z" fill="#1F1F1F"/>
<path d="M20.4825 16.0569C20.7687 16.1102 20.8967 16.3627 20.9536 16.6258C21.0051 16.8587 21.0691 17.2284 20.9465 17.4489C20.8825 17.5644 20.7509 17.6338 20.6638 17.7315C20.5447 17.8667 20.4682 18.0302 20.4576 18.2115C20.438 18.5511 20.6816 18.8889 20.9233 19.1022C21.1242 19.2782 21.4229 19.0595 21.2949 18.816C21.2202 18.6738 21.1189 18.528 21.0905 18.3662C21.0656 18.2258 21.1082 18.1671 21.2113 18.0747C21.4905 17.824 21.6238 17.5413 21.6291 17.1627C21.638 16.5031 21.4033 15.6053 20.6389 15.4773C20.4807 15.4507 20.3171 15.5182 20.2709 15.6853C20.2318 15.8311 20.3207 16.0231 20.4789 16.0533L20.4825 16.0569Z" fill="#1F1F1F"/>
<path d="M19.1109 11.3137C17.4754 11.3901 15.8843 11.7154 14.3749 12.3537C13.6301 12.6683 12.9136 13.0434 12.2363 13.4843C11.5412 13.9377 10.9172 14.4248 10.7038 15.2674C10.6061 15.6497 10.5972 16.0497 10.5918 16.4426C10.5847 16.887 10.5847 17.3314 10.5883 17.7759C10.5972 18.6914 10.6167 19.6052 10.7536 20.5119C10.9883 22.0728 12.4052 23.0808 13.7029 23.7777C16.3785 25.2141 19.5287 25.4754 22.4941 25.0381C24.0123 24.8141 25.5287 24.4159 26.9065 23.7279C27.6069 23.3777 28.2665 22.9457 28.8549 22.4301C29.4309 21.927 30.0141 21.3172 30.2541 20.5759C30.382 20.1777 30.3998 19.7474 30.4229 19.3332C30.4461 18.919 30.4603 18.5137 30.4674 18.1048C30.4798 17.271 30.5278 16.4052 30.4229 15.5768C30.3234 14.7839 29.9767 14.0906 29.4114 13.5252C28.8336 12.9474 28.1278 12.5972 27.3741 12.3021C26.9723 12.1457 26.5634 12.0123 26.1545 11.879C25.7687 11.7546 25.6069 12.3554 25.9874 12.4852C27.3065 12.935 28.8941 13.5039 29.5145 14.8763C29.8345 15.5839 29.7545 16.4159 29.7527 17.1714C29.7527 17.9199 29.7421 18.6701 29.6923 19.4168C29.6674 19.7848 29.646 20.167 29.4949 20.5101C29.3509 20.8372 29.1163 21.1163 28.8727 21.3723C28.3856 21.8861 27.8274 22.3181 27.2212 22.6826C25.9981 23.415 24.6292 23.8506 23.2372 24.1332C20.5474 24.679 17.6745 24.6114 15.1021 23.5963C14.4709 23.3474 13.8701 23.0274 13.2994 22.663C12.7269 22.2968 12.1634 21.8826 11.7385 21.3457C11.2301 20.7057 11.3261 19.9057 11.3118 19.143C11.2958 18.279 11.2745 17.415 11.2887 16.551C11.2994 15.8719 11.3652 15.1323 11.8914 14.6434C12.4247 14.1474 13.1269 13.7794 13.7669 13.4417C15.0789 12.7501 16.5456 12.2363 18.0087 11.9821C18.3749 11.9181 18.7429 11.8719 19.1127 11.8399C19.4452 11.8097 19.4558 11.2959 19.1127 11.3119L19.1109 11.3137Z" fill="#1F1F1F"/>
<path d="M10.8471 16.18C10.7778 16.9569 10.9467 17.7427 11.3662 18.404C11.8125 19.1062 12.5182 19.6218 13.2222 20.0467C14.6569 20.9107 16.2765 21.3409 17.928 21.5275C19.6045 21.7178 21.3254 21.6751 22.9822 21.3409C24.6214 21.0102 26.2053 20.3809 27.6489 19.54C28.4311 19.0831 29.1671 18.5231 29.6933 17.7764C29.9511 17.4102 30.1627 16.9907 30.2658 16.5515C30.3689 16.1124 30.3458 15.6662 30.2747 15.2271C30.2285 14.9427 29.7378 15.0049 29.768 15.2964C29.8409 15.9898 29.5422 16.7258 29.1618 17.2964C28.7529 17.9115 28.1716 18.3809 27.5511 18.7684C26.2533 19.5791 24.8276 20.2227 23.3325 20.5569C21.8142 20.8964 20.2569 21.0049 18.7049 20.8982C17.1973 20.7951 15.6702 20.5089 14.2925 19.8671C13.5138 19.5044 12.7262 19.0404 12.1396 18.404C11.5885 17.8084 11.2916 16.9871 11.3271 16.1782C11.3413 15.8689 10.8791 15.8778 10.8525 16.1782L10.8471 16.18Z" fill="#1F1F1F"/>
<path d="M11.7503 22.4111C11.7165 23.524 11.6987 24.6351 11.7041 25.748C11.7058 26.2564 11.6934 26.788 11.8889 27.268C12.0543 27.6751 12.3405 28.0146 12.6783 28.2884C13.4303 28.8982 14.3583 29.3391 15.2489 29.7035C16.1965 30.0911 17.2063 30.3062 18.2178 30.4448C20.2605 30.724 22.3476 30.6262 24.3512 30.1355C25.2934 29.9062 26.241 29.6004 27.1281 29.204C27.9618 28.8306 28.7352 28.2777 29.1565 27.4457C30.1023 25.5826 29.3396 23.4457 29.6952 21.476C29.7734 21.044 29.1441 20.8537 29.025 21.2911C28.5787 22.9426 29.1565 24.6884 28.7565 26.3435C28.5609 27.1542 28.1112 27.7746 27.3983 28.2102C26.6445 28.6688 25.7663 28.9408 24.9254 29.1933C23.0872 29.7462 21.1547 29.9417 19.2401 29.7977C18.2978 29.7266 17.3556 29.572 16.4454 29.3177C15.5138 29.0582 14.6356 28.6368 13.7983 28.1586C13.4214 27.9435 13.0303 27.7106 12.7494 27.3693C12.4276 26.9782 12.4009 26.4964 12.3849 26.0111C12.3458 24.8111 12.3405 23.6111 12.3174 22.4111C12.3103 22.0448 11.7592 22.0448 11.7485 22.4111H11.7503ZM13.1476 19.4742C14.4276 18.8715 15.6987 18.2564 17.0036 17.7088C17.6472 17.4386 18.2943 17.1791 18.9432 16.9231C19.2614 16.7968 19.5796 16.6742 19.8996 16.5515L20.3796 16.3702C20.4738 16.3346 20.5663 16.3026 20.6605 16.2653C20.7672 16.2244 20.8205 16.164 20.9112 16.1035C21.1174 15.9666 21.0676 15.5435 20.7707 15.5826C20.6694 15.5951 20.5805 15.5791 20.4809 15.6093C20.3992 15.6342 20.3209 15.6715 20.2409 15.7017C20.0685 15.7693 19.8961 15.8351 19.7236 15.9044C19.4054 16.0306 19.0872 16.1568 18.7707 16.2866C18.0987 16.5622 17.4338 16.852 16.7707 17.1471C15.4587 17.7337 14.1449 18.3257 12.8721 18.9977C12.5538 19.1648 12.8329 19.6253 13.1512 19.4742H13.1476Z" fill="#1F1F1F"/>
<path d="M21.2399 15.9633C22.4541 15.494 23.679 15.0388 24.9234 14.6513C25.5457 14.4575 26.1732 14.2797 26.8008 14.102C27.1012 14.0166 27.4017 13.9366 27.7039 13.8548C28.031 13.7677 28.3688 13.6984 28.6692 13.5384C28.9359 13.3962 28.815 12.9571 28.5146 12.966C28.1732 12.9766 27.8443 13.0886 27.519 13.1846C27.2203 13.2735 26.9217 13.366 26.6248 13.4602C25.9883 13.6611 25.359 13.8815 24.7297 14.1055C23.4906 14.5464 22.2621 15.0015 21.0514 15.5135C20.7972 15.6202 20.9803 16.0628 21.2417 15.9633H21.2399Z" fill="#1F1F1F"/>
<path d="M14.1554 12.8511C15.8478 13.7417 17.6256 14.4617 19.3269 15.3328C21.0282 16.204 22.5714 17.0804 24.1322 18.0546C25.0194 18.6075 25.8762 19.2031 26.7527 19.7737C27.1189 20.012 27.4265 19.4466 27.0887 19.1977C25.6007 18.1008 23.9865 17.1426 22.3794 16.2342C20.7491 15.3115 19.0709 14.4813 17.3625 13.7168C16.3634 13.2688 15.3589 12.8137 14.3331 12.428C14.086 12.3355 13.9242 12.7302 14.1536 12.8511H14.1554ZM12.6514 19.4662C12.6194 20.0902 12.6442 20.7177 12.6834 21.3417C12.7225 21.9604 12.7456 22.5897 12.8327 23.2031C12.8789 23.532 13.4105 23.4484 13.4051 23.1248C13.3962 22.5186 13.3145 21.9088 13.2718 21.3044C13.2291 20.6911 13.1989 20.0795 13.1794 19.4644C13.1687 19.1231 12.6691 19.1248 12.6514 19.4644V19.4662Z" fill="#1F1F1F"/>
<path d="M26.7289 19.7077C26.7325 20.3299 26.7254 20.9503 26.7183 21.5726C26.7147 21.8783 26.7058 22.1823 26.6934 22.4881C26.6863 22.6463 26.6792 22.8046 26.6703 22.9628C26.6596 23.1477 26.6809 23.2632 26.8392 23.3806C26.9103 23.4321 27.0187 23.4197 27.0898 23.3806C27.3654 23.2277 27.2943 22.7619 27.3049 22.4881C27.3174 22.1823 27.3245 21.8783 27.3263 21.5726C27.3316 20.9503 27.3014 20.3263 27.2445 19.7077C27.2161 19.3823 26.7254 19.3699 26.7272 19.7077H26.7289Z" fill="#1F1F1F"/>
<path d="M12.4961 23.0121C14.0676 24.2494 15.9912 25.0352 17.9805 25.2485C18.8232 25.3392 19.673 25.3285 20.5192 25.2823C22.3752 25.1792 24.2277 24.8948 26.0072 24.3561C27.0685 24.0361 28.1388 23.6005 28.8925 22.7881C28.5814 24.0148 28.9939 24.6761 28.8925 25.9365C28.8712 26.205 28.2348 27.0708 28.1352 27.3214C27.8792 27.9756 27.1574 28.3045 26.4854 28.5072C25.753 28.7276 25.0028 28.8752 24.2508 29.0156C21.5343 29.5241 18.6721 29.9383 16.057 29.0441C15.1381 28.7283 14.2792 28.2595 13.5165 27.6574C13.2641 27.4583 13.0152 27.2343 12.8765 26.9445C12.7343 26.6476 12.7201 26.3081 12.7059 25.9792L12.5992 23.2272" fill="#1F1F1F"/>
<path d="M12.3204 23.1881C14.0804 24.6405 16.2279 25.4779 18.5053 25.6219C19.7639 25.7001 21.0386 25.613 22.2884 25.4619C23.5204 25.3125 24.7435 25.0814 25.9364 24.7348C27.099 24.3952 28.2919 23.933 29.1559 23.0512C28.9497 22.9303 28.7417 22.8112 28.5355 22.6903C28.4359 23.0761 28.3826 23.4725 28.395 23.8708C28.4075 24.2157 28.459 24.557 28.4928 24.9001C28.5106 25.0868 28.523 25.2752 28.5266 25.4637C28.5266 25.5668 28.5266 25.6699 28.5213 25.7748C28.5195 25.8157 28.5159 25.8565 28.5142 25.8974C28.5088 26.0183 28.539 25.8334 28.5088 25.9134C28.4839 25.9792 28.5035 25.9294 28.5088 25.9188C28.4964 25.9419 28.4857 25.9685 28.475 25.9917C28.4466 26.0468 28.4182 26.1001 28.3879 26.1534C28.3186 26.2743 28.2457 26.3934 28.171 26.5125C28.0502 26.7081 27.9133 26.9001 27.8155 27.1081C27.6768 27.405 27.5044 27.6148 27.2199 27.7872C26.5462 28.1943 25.7053 28.3419 24.9444 28.5001C21.659 29.1845 17.9737 29.8228 14.8839 28.1214C14.4893 27.9045 14.1053 27.6574 13.7533 27.3765C13.4155 27.1063 13.1613 26.8308 13.1026 26.3881C13.0386 25.8903 13.051 25.373 13.0315 24.8699C13.0102 24.3223 12.987 23.7748 12.9657 23.2272C12.9462 22.7614 12.2208 22.7579 12.2386 23.2272C12.2759 24.2317 12.2848 25.2432 12.3559 26.2459C12.3879 26.6974 12.4964 27.1081 12.7844 27.4654C13.0439 27.7872 13.3959 28.0379 13.7319 28.2743C15.227 29.3232 17.0102 29.8317 18.8217 29.917C20.6919 30.0059 22.5604 29.709 24.3933 29.3712C25.2928 29.2059 26.2279 29.0512 27.0795 28.7063C27.4386 28.5605 27.7817 28.3774 28.0626 28.1054C28.1888 27.9845 28.3026 27.8405 28.3879 27.6877C28.4359 27.6041 28.4662 27.5117 28.507 27.4263C28.4537 27.5348 28.539 27.3783 28.5533 27.3534C28.7115 27.0779 28.8928 26.8183 29.0475 26.5428C29.1204 26.413 29.195 26.2761 29.2395 26.1339C29.2982 25.9472 29.291 25.7339 29.291 25.5401C29.291 24.6441 29.0457 23.7819 29.2502 22.8894C29.3284 22.5463 28.8928 22.2405 28.6297 22.5285C27.9399 23.2841 27.0137 23.6859 26.0537 23.9863C24.9337 24.3383 23.7799 24.5854 22.6173 24.749C20.3417 25.069 17.9684 25.1721 15.7622 24.4308C14.6356 24.0544 13.575 23.5037 12.619 22.7988C12.3933 22.6317 12.0999 23.0103 12.3186 23.1899L12.3204 23.1881Z" fill="#1F1F1F"/>
<path d="M19.7075 8.44364C16.3439 9.25964 12.9999 10.1503 9.65236 11.0285C9.49592 11.0694 9.39103 11.2187 9.38747 11.377C9.27547 15.281 9.19192 19.1868 9.0977 23.0925C9.08525 23.6259 9.07281 24.1574 9.05858 24.6908C9.04436 25.2525 9.07458 25.8161 9.06214 26.3779C9.05681 26.6232 9.31992 26.737 9.51903 26.6392C10.5341 26.1467 11.6879 25.873 12.8079 25.7948C13.215 25.7663 13.2204 25.1299 12.8079 25.1565C11.5368 25.2383 10.3599 25.5761 9.21147 26.1165L9.66836 26.3779C9.68258 25.889 9.73947 25.4019 9.75192 24.913C9.76436 24.4241 9.77858 23.937 9.79103 23.4481C9.8177 22.4721 9.84436 21.4961 9.86925 20.5183C9.92258 18.5663 9.97414 16.6125 10.0275 14.6605C10.0577 13.5654 10.0826 12.4721 10.1057 11.377L9.84081 11.7254C13.1813 10.8223 16.5253 9.93164 19.8479 8.96808C20.1821 8.8703 20.0435 8.36364 19.7039 8.44542L19.7075 8.44364Z" fill="#1F1F1F"/>
<path d="M9.61509 11.2133C7.55109 10.1964 5.18842 8.98751 3.20798 7.82129C3.01953 12.6817 3.18131 17.6595 3.01953 22.5217C5.13686 23.8071 7.2542 25.0942 9.36975 26.3795C9.28264 23.5831 9.25064 20.7866 9.27553 17.9884C9.29509 15.7591 9.35198 13.528 9.46398 11.3004" fill="#1F1F1F"/>
<path d="M9.73867 10.9998C7.62489 9.83185 5.45956 8.75274 3.37778 7.52607C3.14667 7.39096 2.87467 7.56696 2.864 7.82118C2.71111 11.6505 2.78044 15.4834 2.73956 19.3145C2.72889 20.3847 2.70933 21.4532 2.672 22.5216C2.66844 22.6443 2.74133 22.7581 2.84267 22.8185C4.95822 24.1056 7.06489 25.4123 9.19289 26.6781C9.40978 26.8078 9.728 26.6443 9.71378 26.3794C9.60889 24.4096 9.61956 22.4327 9.59467 20.463C9.57156 18.5252 9.60533 16.5821 9.65689 14.6443C9.68711 13.5296 9.72978 12.415 9.78489 11.3021C9.80622 10.8861 9.15911 10.8861 9.13778 11.3021C8.94044 15.2043 8.896 19.119 8.95289 23.0247C8.96889 24.143 9.00978 25.2612 9.02044 26.3812L9.54133 26.0825C7.43644 24.7776 5.30667 23.5101 3.18933 22.2265L3.36 22.5234C3.48267 18.6941 3.41511 14.8612 3.46844 11.0301C3.48267 9.96163 3.50578 8.8914 3.54489 7.82296L3.03111 8.11807C5.11822 9.34118 7.26933 10.463 9.48622 11.4301C9.77067 11.5545 10.0213 11.1616 9.73511 11.0034L9.73867 10.9998ZM11.1947 6.55363C10.1476 5.74296 8.80711 4.73674 8.76444 3.27896C8.75733 3.00163 8.784 2.6354 9.00622 2.43807C9.2 2.26563 9.49511 2.30118 9.712 2.40963C10.2933 2.69763 10.4836 3.52251 10.6293 4.0914C10.848 4.94296 10.9244 5.8194 10.8764 6.69585C10.8551 7.07985 11.5022 7.1794 11.5591 6.78829C11.7227 5.66474 11.8987 4.51807 12.2098 3.42651C12.3271 3.01585 12.496 2.39896 12.9138 2.1874C13.0471 2.11985 13.232 2.08963 13.3618 2.18385C13.5307 2.30651 13.6018 2.61407 13.6516 2.80429C13.888 3.71274 13.616 4.66563 12.9689 5.33407C12.3218 6.00251 11.4471 6.39718 10.6898 6.93051C9.81156 7.5474 9.04711 8.33851 8.93867 9.45318C8.90489 9.80518 9.50044 9.88874 9.56089 9.53674C9.73156 8.53585 10.5831 7.83896 11.3938 7.3234C12.2898 6.75274 13.2604 6.22829 13.872 5.32874C14.4853 4.42918 14.5973 3.21851 14.1813 2.21585C13.9627 1.6914 13.5449 1.35363 12.9547 1.4514C12.4231 1.53851 12.0516 1.97585 11.8347 2.44163C11.5431 3.06385 11.4062 3.74118 11.2693 4.4114C11.1218 5.13851 10.9938 5.8674 10.8871 6.60163C11.1147 6.63185 11.3422 6.66385 11.5698 6.69407C11.6213 5.75896 11.5324 4.81318 11.3013 3.90474C11.1076 3.14207 10.8213 2.19274 10.0658 1.80518C9.72267 1.6274 9.30667 1.55985 8.93511 1.68963C8.53867 1.82829 8.27733 2.16429 8.15644 2.55718C7.90222 3.38207 8.192 4.3314 8.65244 5.02651C9.20889 5.86385 10.0231 6.44874 10.8356 7.01763C11.1058 7.20785 11.4578 6.75985 11.1929 6.5554L11.1947 6.55363Z" fill="#1F1F1F"/>
<path d="M10.8709 9.67714C11.1784 9.29847 11.4309 8.87358 11.5873 8.40958C11.6655 8.18025 11.71 7.94203 11.7402 7.70025C11.7562 7.58114 11.7651 7.46025 11.7669 7.34114C11.7704 7.19536 11.7829 7.02469 11.6958 6.90203C11.5695 6.72425 11.262 6.67092 11.1482 6.90203C11.0451 7.11358 11.1091 7.38914 11.0966 7.62203C11.086 7.83358 11.054 8.01847 11.0006 8.22825C10.8958 8.64603 10.7233 9.02114 10.462 9.36425C10.286 9.59536 10.6824 9.90469 10.8673 9.67714H10.8709Z" fill="#1F1F1F"/>
<path d="M5.3069 9.24507C6.33445 8.85752 7.3869 8.52152 8.42512 8.15707C8.93179 7.9793 9.43668 7.80152 9.94512 7.63263C10.2065 7.54552 10.4678 7.46018 10.7291 7.37485C10.9905 7.28952 11.3033 7.23085 11.5238 7.04596C11.7442 6.86107 11.5522 6.5073 11.2962 6.49663C11.0402 6.48596 10.7522 6.63707 10.5051 6.72774C10.258 6.81841 10.0145 6.9073 9.76912 6.99618C9.25001 7.18463 8.7309 7.36952 8.21356 7.55796C7.18956 7.93307 6.18512 8.35441 5.16645 8.73841C4.85179 8.85752 4.98868 9.36774 5.3069 9.24685V9.24507Z" fill="#1F1F1F"/>
<path d="M11.3939 7.41711C11.9628 7.84911 12.5388 8.27222 13.1166 8.69177C13.4046 8.90155 13.6944 9.11133 13.9824 9.32289C14.1264 9.42777 14.2704 9.53266 14.4161 9.63577C14.4837 9.68377 14.5779 9.73 14.633 9.79044C14.6561 9.81533 14.6775 9.87222 14.713 9.906C14.8286 10.018 15.0437 10.0358 15.1575 9.906L15.1788 9.88289C15.2926 9.75311 15.2979 9.61622 15.2321 9.46333C15.1664 9.31044 15.0081 9.21089 14.8748 9.11489C14.7219 9.00466 14.5673 8.89444 14.4126 8.78422L13.5113 8.14955C12.9104 7.72644 12.3095 7.30511 11.7015 6.89266C11.5664 6.80022 11.3655 6.866 11.2873 7.00111C11.1966 7.15577 11.2659 7.31577 11.3957 7.41533L11.3939 7.41711Z" fill="#1F1F1F"/>
<path d="M14.8029 9.86702C14.6891 10.3221 14.6784 10.8021 14.6571 11.2697C14.6357 11.7372 14.6109 12.1924 14.6375 12.651C14.6553 12.9764 15.114 12.9728 15.1406 12.651C15.2153 11.7461 15.1762 10.8324 15.2491 9.92747C15.2704 9.67147 14.8651 9.62169 14.8046 9.86702H14.8029ZM3.28464 7.79591C3.76819 7.47769 4.3833 7.38169 4.94153 7.25902C5.49975 7.13636 6.03841 7.02436 6.58775 6.9088C7.17086 6.78791 7.75397 6.66702 8.3353 6.54258C8.5913 6.48747 8.8473 6.43236 9.1033 6.37369C9.3113 6.32569 9.58864 6.30436 9.76108 6.17102C9.92997 6.04125 9.96908 5.68213 9.69175 5.64125C9.44997 5.60391 9.2153 5.69102 8.98064 5.74613C8.7193 5.80658 8.45619 5.86525 8.19486 5.92213C7.59397 6.05369 6.9913 6.17991 6.39041 6.30791C5.83575 6.42525 5.28286 6.54258 4.73175 6.67769C4.13975 6.82347 3.50864 6.95502 3.00908 7.3248C2.73353 7.52925 2.98597 7.99147 3.28464 7.79413V7.79591ZM14.2802 5.98436C15.226 6.42702 16.1611 6.89102 17.098 7.3568C17.5602 7.58613 18.0206 7.81547 18.4811 8.05013C18.8864 8.25813 19.3504 8.44125 19.6757 8.76836C20.0011 9.09547 20.4846 8.59236 20.1664 8.27769C19.8304 7.94525 19.3966 7.74969 18.9789 7.53991C18.4917 7.29458 18.0046 7.05458 17.514 6.81636C16.5451 6.3488 15.5584 5.9168 14.57 5.49191C14.2393 5.34969 13.9442 5.82791 14.282 5.98613L14.2802 5.98436Z" fill="#1F1F1F"/>
<path d="M11.8459 7.45678C12.589 7.28967 13.341 7.18834 14.093 7.07811C14.5001 7.01767 14.9108 6.96434 15.3179 6.90567C15.6326 6.85945 16.0646 6.87367 16.3455 6.71011C16.5588 6.58567 16.5055 6.26745 16.2779 6.19811C15.965 6.10034 15.5455 6.23367 15.2308 6.27989C14.8077 6.34211 14.3863 6.42211 13.965 6.50211C13.2112 6.64256 12.4575 6.80078 11.7108 6.97323C11.3961 7.04611 11.5295 7.52967 11.8441 7.45856L11.8459 7.45678ZM19.7108 8.655L19.6841 8.85767L19.6699 8.959C19.6646 8.99989 19.661 9.02656 19.6752 9.07278L19.6912 9.12078C19.7055 9.16167 19.7268 9.20434 19.757 9.23456L19.8086 9.27545C19.8388 9.295 19.8708 9.30389 19.9046 9.30567C19.9277 9.311 19.9508 9.311 19.9739 9.30567C19.997 9.30567 20.0183 9.30034 20.0397 9.28789C20.061 9.28256 20.0806 9.27011 20.0966 9.25411C20.125 9.23634 20.1463 9.21145 20.1623 9.18122L20.189 9.13856C20.221 9.08345 20.2246 9.02834 20.2317 8.96611L20.2423 8.86122L20.2655 8.655C20.2655 8.61589 20.2583 8.58034 20.2423 8.54834C20.2317 8.51456 20.2121 8.48434 20.1855 8.45945C20.1606 8.43278 20.1303 8.41322 20.0966 8.40256C20.0628 8.38478 20.0272 8.37767 19.9899 8.37945C19.9188 8.383 19.8441 8.40611 19.7943 8.46123L19.7517 8.51811C19.7268 8.56078 19.7143 8.60878 19.7143 8.65856L19.7108 8.655ZM22.3206 7.48345C23.149 7.37856 23.8352 6.85767 24.2619 6.15011C24.7668 5.31456 24.8752 4.30656 24.9499 3.35367C24.9837 2.93234 24.3366 2.93945 24.2975 3.35367C24.1943 4.41678 24.6708 5.50834 25.4797 6.19634C26.3455 6.93411 27.4192 7.16345 28.5286 7.10834C28.9552 7.087 28.9606 6.447 28.5286 6.43989C27.5703 6.42211 26.509 6.65856 25.7339 7.24345C25.0121 7.78745 24.4966 8.655 24.5783 9.58122C24.8059 9.551 25.0335 9.519 25.261 9.48878C25.0779 8.69056 24.8272 7.80167 24.1552 7.27367C23.7641 6.96789 23.293 6.85945 22.8023 6.847C22.2299 6.83278 21.6326 6.85945 21.0655 6.95011C20.6939 7.00878 20.7917 7.59367 21.1526 7.59367C21.6503 7.59367 22.1481 7.54034 22.6459 7.53678C23.0352 7.53323 23.4317 7.56878 23.7446 7.82656C24.2761 8.26211 24.445 9.03722 24.589 9.67367C24.6743 10.0488 25.3055 9.97589 25.2717 9.58122C25.2077 8.85767 25.6041 8.17322 26.1943 7.76789C26.8912 7.28967 27.7072 7.19011 28.525 7.10834L28.4361 6.45234C27.5775 6.58034 26.5695 6.26745 25.9188 5.70389C25.2681 5.14034 24.8628 4.24967 24.9463 3.35367H24.2939C24.2086 4.72434 23.9383 6.72434 22.2477 6.96789C21.9579 7.00878 22.0237 7.52078 22.317 7.48345H22.3206ZM3.61301 3.70923C3.47612 3.327 3.28057 2.98923 3.0299 2.671C2.81834 2.40434 2.4059 2.74567 2.56768 3.02834C2.77923 3.39634 3.02812 3.743 3.29123 4.07723C3.40501 4.22123 3.52768 4.42567 3.70546 4.49678C3.88323 4.56789 4.09657 4.50211 4.1979 4.33145C4.26368 4.21945 4.25479 4.08611 4.3099 3.97234C4.36857 3.85145 4.4699 3.75545 4.56057 3.65945C4.77568 3.43189 4.99079 3.19723 5.05479 2.879C5.11879 2.55723 4.77212 2.37056 4.52679 2.57145C4.04679 2.96256 3.7179 3.535 3.5579 4.12878C3.5099 4.30656 3.61834 4.47011 3.78546 4.52878C4.45212 4.76345 5.26457 4.59278 5.8619 5.01234L6.02723 4.40078L4.92679 4.30478C4.6139 4.27634 4.28857 4.24789 3.99879 4.11811C3.81212 4.03634 3.56501 4.08789 3.51168 4.31545C3.39257 4.815 3.3179 5.32345 3.28234 5.83545C3.25568 6.21767 3.83168 6.27456 3.93479 5.92434C4.10012 5.36256 4.11079 4.783 3.98812 4.21234C3.94901 4.03278 3.74279 3.935 3.57568 3.97767C3.02101 4.12167 2.45746 4.22478 1.88679 4.28167L1.97746 4.95545C2.54101 4.85056 3.13657 4.75634 3.66634 4.53589C4.0379 4.38123 3.89923 3.87989 3.50101 3.93678C2.92679 4.01678 2.36501 4.18745 1.79434 4.29411C1.41923 4.36345 1.49923 5.00523 1.88501 4.96789C2.5179 4.90567 3.13834 4.79367 3.75168 4.62478C3.61479 4.54656 3.47612 4.46834 3.33923 4.39011C3.44412 4.84345 3.42279 5.30211 3.29123 5.74656L3.94368 5.83545C3.97462 5.38269 4.0424 4.9332 4.14634 4.49145L3.65923 4.68878C4.38634 5.00878 5.24146 4.98923 6.0219 5.055C6.37568 5.08523 6.42901 4.61056 6.18723 4.44345C5.52234 3.97767 4.68501 4.15723 3.95257 3.90123C4.02901 4.03456 4.10368 4.16789 4.18012 4.30123C4.31523 3.791 4.59257 3.38034 4.96946 3.01945C4.79346 2.91634 4.61746 2.815 4.44146 2.71189C4.39879 2.975 4.17834 3.14389 4.01123 3.33411C3.91701 3.44078 3.82457 3.55456 3.76234 3.68256C3.72857 3.74834 3.69834 3.82123 3.68057 3.89234C3.67168 3.92256 3.66457 3.95634 3.66279 3.98656C3.6539 4.10211 3.60946 4.00434 3.71434 3.95634L3.86901 3.91367L3.82101 3.90834L3.97568 3.951C3.8939 3.89767 3.82812 3.78034 3.7659 3.70389C3.68057 3.599 3.59701 3.49056 3.51523 3.38034C3.36057 3.16878 3.21657 2.95011 3.07257 2.72967C2.9179 2.84878 2.76501 2.96789 2.61034 3.087C2.81123 3.31278 2.97479 3.57234 3.09034 3.85323C3.21834 4.16611 3.73034 4.04167 3.60946 3.70923H3.61301ZM2.72412 23.9137C2.23523 25.0692 2.30812 26.4434 3.03346 27.4906C3.70012 28.4523 4.87523 29.1706 6.07168 29.1208C6.67257 29.0959 7.25745 28.8399 7.58279 28.3154C7.88501 27.8301 7.84057 27.1883 7.4459 26.7688C7.03168 26.3279 6.37746 26.3492 5.93123 26.7261C5.4619 27.1243 5.39257 27.7857 5.6219 28.3314C5.89746 28.9839 6.5179 29.3714 7.15257 29.6203C7.85657 29.8977 8.69745 30.0808 9.45657 30.0506C9.76057 30.0381 9.75168 29.6132 9.45657 29.5848C8.9179 29.5314 8.3899 29.4781 7.87612 29.2986C7.42457 29.1403 6.93034 28.943 6.56768 28.6194C6.26723 28.351 6.00768 27.9101 6.1499 27.4959C6.25123 27.2008 6.63701 26.9448 6.91968 27.1706C7.21657 27.4052 7.15434 27.8301 6.92679 28.0861C6.61568 28.4346 6.1179 28.4986 5.67701 28.4417C4.85034 28.3368 4.06101 27.8461 3.58279 27.167C2.95701 26.2799 2.85034 25.1386 3.24857 24.1359C3.36946 23.8354 2.84857 23.6114 2.72057 23.9137H2.72412ZM16.6157 4.415C16.6139 4.31367 16.621 4.21411 16.6299 4.11278C16.6299 4.09323 16.637 4.07189 16.637 4.05234C16.6317 4.09323 16.6299 4.09856 16.637 4.06656C16.6388 4.05411 16.6406 4.03989 16.6441 4.02745C16.653 3.98123 16.6619 3.935 16.6743 3.88878C16.6975 3.79811 16.7277 3.70745 16.7615 3.62034C16.7721 3.59545 16.781 3.57056 16.7917 3.54567C16.813 3.487 16.7703 3.59011 16.7952 3.53856C16.8183 3.49056 16.8415 3.44078 16.8646 3.39278C16.925 3.26656 16.9037 3.09767 16.7686 3.02656C16.6335 2.95545 16.4912 3.00167 16.4023 3.12256C16.141 3.47989 16.0379 3.98123 16.0841 4.41678C16.0912 4.48967 16.109 4.55189 16.1623 4.607C16.2086 4.65323 16.285 4.68878 16.3526 4.68523C16.4948 4.67811 16.6228 4.56789 16.621 4.41678L16.6157 4.415ZM18.253 5.01234C18.3188 4.90389 18.3863 4.79723 18.4592 4.69234C18.4948 4.64078 18.5321 4.58923 18.5712 4.53767C18.5801 4.527 18.589 4.51456 18.5961 4.50389C18.6281 4.46123 18.5766 4.527 18.5979 4.50211L18.6566 4.42745C18.7348 4.33145 18.8112 4.23545 18.8948 4.14478C18.9926 4.03634 19.101 3.93678 19.1775 3.81234C19.2343 3.71811 19.2201 3.57589 19.1366 3.49945C19.053 3.423 18.9268 3.39989 18.8237 3.45856C18.6957 3.53145 18.5979 3.64345 18.5001 3.75189C18.4023 3.86034 18.3063 3.97411 18.2175 4.09145C18.0592 4.29945 17.917 4.51811 17.7908 4.74567C17.7232 4.86656 17.757 5.04256 17.8868 5.11011C18.0166 5.17767 18.1748 5.14211 18.2512 5.01411L18.253 5.01234ZM19.9668 5.86923C19.9952 5.81234 20.029 5.759 20.0663 5.70923L20.0255 5.76078C20.0788 5.69323 20.1375 5.63278 20.205 5.58123L20.1517 5.62211C20.205 5.58123 20.2619 5.54745 20.3188 5.51545C20.3757 5.48345 20.4326 5.45145 20.493 5.42478L20.4343 5.44967L20.4432 5.44611C20.5055 5.41945 20.5552 5.39278 20.5908 5.33234C20.621 5.279 20.6352 5.20078 20.6157 5.14211C20.5961 5.08345 20.5588 5.02478 20.5019 4.99456L20.4432 4.96967C20.4003 4.95723 20.3546 4.95723 20.3117 4.96967C20.2175 4.98389 20.1339 5.01056 20.0486 5.05323C19.9632 5.09589 19.8903 5.15456 19.8192 5.215C19.6966 5.32167 19.5899 5.46034 19.5223 5.60967C19.4939 5.67367 19.4779 5.73589 19.4975 5.807C19.5135 5.86567 19.5597 5.92967 19.6148 5.95989C19.6735 5.99189 19.7463 6.00611 19.8121 5.98478C19.8726 5.96523 19.9348 5.92611 19.965 5.86745L19.9668 5.86923Z" fill="#1F1F1F"/>
</svg>
